<svg width="23px" height="23px" viewBox="0 0 23 23" version="1.1" xmlns="http://www.w3.org/2000/svg" xmlns:xlink="http://www.w3.org/1999/xlink">
    <defs>
        <circle id="path-1" cx="11.5" cy="9.5" r="7.5"></circle>
        <filter x="-46.7%" y="-33.3%" width="193.3%" height="193.3%" filterUnits="objectBoundingBox" id="filter-2">
            <feOffset dx="0" dy="2" in="SourceAlpha" result="shadowOffsetOuter1"></feOffset>
            <feGaussianBlur stdDeviation="2" in="shadowOffsetOuter1" result="shadowBlurOuter1"></feGaussianBlur>
            <feColorMatrix values="0 0 0 0 0   0 0 0 0 0   0 0 0 0 0  0 0 0 0.5 0" type="matrix" in="shadowBlurOuter1"></feColorMatrix>
        </filter>
    </defs>
    <g id="Page-1" stroke="none" stroke-width="1" fill="none" fill-rule="evenodd">
        <g id="Oval">
            <use fill="black" fill-opacity="1" filter="url(#filter-2)" xlink:href="#path-1"></use>
            <use fill="#FFFFFF" fill-rule="evenodd" xlink:href="#path-1"></use>
        </g>
        <path d="M11.5,5 C9.0115,5 7,7.0115 7,9.5 C7,11.9885 9.0115,14 11.5,14 C13.9885,14 16,11.9885 16,9.5 C16,7.0115 13.9885,5 11.5,5 Z" id="Path" fill="#4CCC99" fill-rule="nonzero"></path>
        <path d="M11.5,13 C9.570625,13 8,11.429375 8,9.5 C8,7.570625 9.570625,6 11.5,6 C13.429375,6 15,7.570625 15,9.5 C15,11.429375 13.429375,13 11.5,13 Z" id="Path" fill="#4CCC99" fill-rule="nonzero"></path>
    </g>
</svg>