<svg width="80px" height="90px" viewBox="0 0 80 90" version="1.1" xmlns="http://www.w3.org/2000/svg" xmlns:xlink="http://www.w3.org/1999/xlink">
    <g id="Page-1" stroke="none" stroke-width="1" fill="none" fill-rule="evenodd">
        <path d="M44.5915964,20.1923077 C50.7835526,20.1923077 55.8088383,25.2178786 55.8088383,31.4101863 C55.8088383,34.7082632 54.3506578,37.6472957 52.0846206,39.7115385 L68.3721577,56 C72.7469094,47.6538462 76,38.9711538 76,31.4101863 C76,14.0673077 61.9334907,0 44.5915964,0 C35.7074852,0 27.6983244,3.70192308 22,9.625 L36.2909257,23.9167368 C38.3323362,21.6505709 41.2937066,20.1923077 44.5915964,20.1923077 Z" id="Path" fill="#7017D0" fill-rule="nonzero"></path>
        <path d="M63.88875,63.2948563 L43.333125,42.3605579 L42.8441667,41.862592 L5.644375,4 L0,9.77105738 L14.1333333,24.1647534 C13.6222917,26.4052816 13.3333333,28.7364069 13.3333333,31.1579171 C13.3333333,54.9210945 44.444375,90 44.444375,90 C44.444375,90 51.8666667,81.6262382 59.444375,70.3105101 L74.3333333,85.4737512 L80,79.7026938 L63.88875,63.2948563 Z" id="Path" fill="#7017D0" fill-rule="nonzero"></path>
    </g>
</svg>