<svg width="48px" height="48px" viewBox="0 0 23 23" version="1.1" xmlns="http://www.w3.org/2000/svg" xmlns:xlink="http://www.w3.org/1999/xlink">
    <defs>
        <circle id="path-1" cx="11.5" cy="9.5" r="7.5"></circle>
        <filter x="-46.7%" y="-33.3%" width="193.3%" height="193.3%" filterUnits="objectBoundingBox" id="filter-2">
            <feOffset dx="0" dy="2" in="SourceAlpha" result="shadowOffsetOuter1"></feOffset>
            <feGaussianBlur stdDeviation="2" in="shadowOffsetOuter1" result="shadowBlurOuter1"></feGaussianBlur>
            <feColorMatrix values="0 0 0 0 0   0 0 0 0 0   0 0 0 0 0  0 0 0 0.5 0" type="matrix" in="shadowBlurOuter1"></feColorMatrix>
        </filter>
    </defs>
    <g id="Page-1" stroke="none" stroke-width="1" fill="none" fill-rule="evenodd">
        <g id="Oval">
            <use fill="black" fill-opacity="1" filter="url(#filter-2)" xlink:href="#path-1"></use>
            <use fill="#FFFFFF" fill-rule="evenodd" xlink:href="#path-1"></use>
        </g>
        <path d="M11.5,8.5 L12.8333333,8.5 C13.0166667,8.5 13.1666667,8.35 13.1666667,8.16666667 C13.1666667,7.98333333 13.0166667,7.83333333 12.8333333,7.83333333 L11.5,7.83333333 C11.3166667,7.83333333 11.1666667,7.98333333 11.1666667,8.16666667 C11.1666667,8.35 11.3166667,8.5 11.5,8.5 Z M11.5,9.83333333 L12.8333333,9.83333333 C13.0166667,9.83333333 13.1666667,9.68333333 13.1666667,9.5 C13.1666667,9.31666667 13.0166667,9.16666667 12.8333333,9.16666667 L11.5,9.16666667 C11.3166667,9.16666667 11.1666667,9.31666667 11.1666667,9.5 C11.1666667,9.68333333 11.3166667,9.83333333 11.5,9.83333333 Z M11.5,11.1666667 L12.8333333,11.1666667 C13.0166667,11.1666667 13.1666667,11.0166667 13.1666667,10.8333333 C13.1666667,10.65 13.0166667,10.5 12.8333333,10.5 L11.5,10.5 C11.3166667,10.5 11.1666667,10.65 11.1666667,10.8333333 C11.1666667,11.0166667 11.3166667,11.1666667 11.5,11.1666667 Z M9.83333333,7.83333333 L10.5,7.83333333 L10.5,8.5 L9.83333333,8.5 L9.83333333,7.83333333 Z M9.83333333,9.16666667 L10.5,9.16666667 L10.5,9.83333333 L9.83333333,9.83333333 L9.83333333,9.16666667 Z M9.83333333,10.5 L10.5,10.5 L10.5,11.1666667 L9.83333333,11.1666667 L9.83333333,10.5 Z M14.1666667,6.5 L8.83333333,6.5 C8.65,6.5 8.5,6.65 8.5,6.83333333 L8.5,12.1666667 C8.5,12.35 8.65,12.5 8.83333333,12.5 L14.1666667,12.5 C14.35,12.5 14.5,12.35 14.5,12.1666667 L14.5,6.83333333 C14.5,6.65 14.35,6.5 14.1666667,6.5 Z M13.8333333,11.8333333 L9.16666667,11.8333333 L9.16666667,7.16666667 L13.8333333,7.16666667 L13.8333333,11.8333333 Z" id="Shape" fill="#4CCC99" fill-rule="nonzero"></path>
    </g>
</svg>