<svg width="48px" height="48px" viewBox="0 0 23 23" version="1.1" xmlns="http://www.w3.org/2000/svg" xmlns:xlink="http://www.w3.org/1999/xlink">
    <defs>
        <circle id="path-1" cx="11.5" cy="9.5" r="7.5"></circle>
        <filter x="-46.7%" y="-33.3%" width="193.3%" height="193.3%" filterUnits="objectBoundingBox" id="filter-2">
            <feOffset dx="0" dy="2" in="SourceAlpha" result="shadowOffsetOuter1"></feOffset>
            <feGaussianBlur stdDeviation="2" in="shadowOffsetOuter1" result="shadowBlurOuter1"></feGaussianBlur>
            <feColorMatrix values="0 0 0 0 0   0 0 0 0 0   0 0 0 0 0  0 0 0 0.5 0" type="matrix" in="shadowBlurOuter1"></feColorMatrix>
        </filter>
    </defs>
    <g id="Page-1" stroke="none" stroke-width="1" fill="none" fill-rule="evenodd">
        <g id="Oval">
            <use fill="black" fill-opacity="1" filter="url(#filter-2)" xlink:href="#path-1"></use>
            <use fill="#4CCC99" fill-rule="evenodd" xlink:href="#path-1"></use>
        </g>
        <path d="M12.1666667,8.66666667 L13.1666667,8.66666667 C13.35,8.66666667 13.5,8.51666667 13.5,8.33333333 C13.5,8.15 13.35,8 13.1666667,8 L12.1666667,8 C11.9833333,8 11.8333333,8.15 11.8333333,8.33333333 C11.8333333,8.51666667 11.9833333,8.66666667 12.1666667,8.66666667 Z M12.1666667,11 L13.1666667,11 C13.35,11 13.5,10.85 13.5,10.6666667 C13.5,10.4833333 13.35,10.3333333 13.1666667,10.3333333 L12.1666667,10.3333333 C11.9833333,10.3333333 11.8333333,10.4833333 11.8333333,10.6666667 C11.8333333,10.85 11.9833333,11 12.1666667,11 Z M13.8333333,12.5 L9.16666667,12.5 C8.8,12.5 8.5,12.2 8.5,11.8333333 L8.5,7.16666667 C8.5,6.8 8.8,6.5 9.16666667,6.5 L13.8333333,6.5 C14.2,6.5 14.5,6.8 14.5,7.16666667 L14.5,11.8333333 C14.5,12.2 14.2,12.5 13.8333333,12.5 Z M9.83333333,9.16666667 L10.8333333,9.16666667 C11.0166667,9.16666667 11.1666667,9.01666667 11.1666667,8.83333333 L11.1666667,7.83333333 C11.1666667,7.65 11.0166667,7.5 10.8333333,7.5 L9.83333333,7.5 C9.65,7.5 9.5,7.65 9.5,7.83333333 L9.5,8.83333333 C9.5,9.01666667 9.65,9.16666667 9.83333333,9.16666667 Z M9.83333333,7.83333333 L10.8333333,7.83333333 L10.8333333,8.83333333 L9.83333333,8.83333333 L9.83333333,7.83333333 Z M9.83333333,11.5 L10.8333333,11.5 C11.0166667,11.5 11.1666667,11.35 11.1666667,11.1666667 L11.1666667,10.1666667 C11.1666667,9.98333333 11.0166667,9.83333333 10.8333333,9.83333333 L9.83333333,9.83333333 C9.65,9.83333333 9.5,9.98333333 9.5,10.1666667 L9.5,11.1666667 C9.5,11.35 9.65,11.5 9.83333333,11.5 Z M9.83333333,10.1666667 L10.8333333,10.1666667 L10.8333333,11.1666667 L9.83333333,11.1666667 L9.83333333,10.1666667 Z" id="Shape" fill="#FFFFFF" fill-rule="nonzero"></path>
    </g>
</svg>