<svg xmlns="http://www.w3.org/2000/svg" viewBox="0 0 40 40">
    <path fill="#98ccfd" d="M4 31.5A2.503 2.503 0 0 1 1.5 29V9c0-1.378 1.122-2.5 2.5-2.5h32c1.378 0 2.5 1.122 2.5 2.5v20c0 1.378-1.122 2.5-2.5 2.5H4z"/>
    <path fill="#4788c7" d="M36 7c1.103 0 2 .897 2 2v20c0 1.103-.897 2-2 2H4c-1.103 0-2-.897-2-2V9c0-1.103.897-2 2-2h32m0-1H4a3 3 0 0 0-3 3v20a3 3 0 0 0 3 3h32a3 3 0 0 0 3-3V9a3 3 0 0 0-3-3z"/>
    <path fill="#fff" d="M18.255 16l-2.113 4.683L14.039 16h-2.695v6.726L8.341 16H6.067L3 22.981h1.815l.671-1.558h3.432l.682 1.558h3.465v-5.185l2.299 5.185h1.563l2.351-5.095v5.095H21V16h-2.745zm-12.12 3.915l1.026-2.44 1.066 2.44H6.135zM33.883 19.413L37 16.018h-2.217l-1.994 2.164L30.86 16H24v6.982h6.635l2.092-2.311L34.767 23h2.21l-3.094-3.587zm-4.155 2.103h-4.011v-1.381h3.838v-1.323h-3.838v-1.308l4.234.012 1.693 1.897-1.916 2.103z"/>
</svg>
