<svg xmlns="http://www.w3.org/2000/svg" viewBox="0 0 40 40">
    <path fill="#dff0fe" d="M4 32.5A2.503 2.503 0 0 1 1.5 30V10c0-1.378 1.122-2.5 2.5-2.5h32c1.378 0 2.5 1.122 2.5 2.5v20c0 1.378-1.122 2.5-2.5 2.5H4z"/>
    <path fill="#4788c7" d="M36 8c1.103 0 2 .897 2 2v20c0 1.103-.897 2-2 2H4c-1.103 0-2-.897-2-2V10c0-1.103.897-2 2-2h32m0-1H4a3 3 0 0 0-3 3v20a3 3 0 0 0 3 3h32a3 3 0 0 0 3-3V10a3 3 0 0 0-3-3z"/>
    <path fill="#b6dcfe" d="M17.922 32.5c6.109-1.476 16.299-4.731 20.578-10.711V30c0 1.378-1.122 2.5-2.5 2.5H17.922z"/>
    <path fill="#4788c7" d="M38 23.21V30c0 1.103-.897 2-2 2H21.699c5.553-1.648 12.445-4.435 16.301-8.79M39 20c-4.841 9.707-26 13-26 13h23a3 3 0 0 0 3-3V20z"/>
    <path fill="#b6dcfe" d="M20.905 21.5c-1.147 0-2.013-.86-2.013-2s.866-2 2.013-2 2.013.86 2.013 2-.866 2-2.013 2z"/>
    <path fill="#4788c7" d="M20.905 18c.877 0 1.513.631 1.513 1.5s-.636 1.5-1.513 1.5c-.877 0-1.513-.631-1.513-1.5s.636-1.5 1.513-1.5m0-1c-1.424 0-2.513 1.083-2.513 2.5s1.089 2.5 2.513 2.5 2.513-1.083 2.513-2.5-1.089-2.5-2.513-2.5zM8.622 17.082H9.6V22h-.978v-4.918zm5.334 2.459c0 1.393 1.156 2.459 2.667 2.459.444 0 .8-.082 1.244-.246v-1.066c-.356.328-.711.492-1.244.492-.978 0-1.689-.656-1.689-1.639 0-.902.711-1.639 1.689-1.639.444 0 .8.164 1.244.492v-1.066c-.445-.164-.8-.328-1.245-.328-1.511.082-2.666 1.23-2.666 2.541zm11.911.738l-1.422-3.197h-1.067L25.6 22h.533l2.222-4.918h-1.067l-1.421 3.197zM28.8 22h2.844v-.82h-1.867v-1.311h1.778v-.82h-1.778v-1.148h1.867v-.82H28.8V22zm6.756-3.443c0-.902-.622-1.475-1.778-1.475h-1.511V22h.978v-1.967h.089L34.756 22H36l-1.6-2.049c.711-.164 1.156-.656 1.156-1.394zm-2.045.82h-.267v-1.475h.267c.622 0 .978.246.978.738 0 .409-.267.737-.978.737zm-28-2.295H4V22h1.422c2.222 0 2.756-1.721 2.756-2.459.089-1.475-1.067-2.459-2.667-2.459zm-.267 4.098h-.266v-3.279h.356c1.333 0 1.867.82 1.867 1.639-.001.329-.09 1.64-1.957 1.64zm7.023-2.213c-.622-.246-.8-.328-.8-.574 0-.328.356-.492.711-.492.267 0 .533.082.8.41l.533-.656c-.444-.41-.889-.574-1.511-.574-.889 0-1.6.574-1.6 1.393 0 .656.356.984 1.244 1.311.533.164.978.328.978.738s-.356.656-.8.656-.889-.246-1.067-.656l-.622.574c.445.657.978.903 1.778.903 1.067 0 1.778-.656 1.778-1.557 0-.738-.356-1.066-1.422-1.476z"/>
</svg>
