<svg xmlns="http://www.w3.org/2000/svg" viewBox="0 0 40 40">
    <path fill="#8bb7f0" d="M4 32.5A2.503 2.503 0 0 1 1.5 30V10c0-1.378 1.121-2.5 2.5-2.5h32c1.379 0 2.5 1.122 2.5 2.5v20c0 1.378-1.121 2.5-2.5 2.5H4z"/>
    <path fill="#4e7ab5" d="M36 8c1.103 0 2 .897 2 2v20c0 1.103-.897 2-2 2H4c-1.103 0-2-.897-2-2V10c0-1.103.897-2 2-2h32m0-1H4a3 3 0 0 0-3 3v20a3 3 0 0 0 3 3h32a3 3 0 0 0 3-3V10a3 3 0 0 0-3-3z"/>
    <path fill="#c74343" d="M17 20a8.97 8.97 0 0 1 3-6.695A8.955 8.955 0 0 0 14 11a9 9 0 0 0-9 9 9 9 0 0 0 9 9 8.955 8.955 0 0 0 6-2.305A8.97 8.97 0 0 1 17 20z"/>
    <path fill="#ffeea3" d="M26 11a8.955 8.955 0 0 0-6 2.305 8.97 8.97 0 0 1 0 13.39A8.955 8.955 0 0 0 26 29a9 9 0 0 0 9-9 9 9 0 0 0-9-9z"/>
    <g>
        <path fill="#ffc49c" d="M23 20a8.97 8.97 0 0 0-3-6.695 8.97 8.97 0 0 0 0 13.39A8.97 8.97 0 0 0 23 20z"/>
    </g>
</svg>
