<svg xmlns="http://www.w3.org/2000/svg" viewBox="0 0 40 40">
    <path fill="#98ccfd" d="M4 32.5A2.503 2.503 0 0 1 1.5 30V10c0-1.378 1.121-2.5 2.5-2.5h32c1.379 0 2.5 1.122 2.5 2.5v20c0 1.378-1.121 2.5-2.5 2.5H4z"/>
    <path fill="#4788c7" d="M36 8c1.103 0 2 .897 2 2v20c0 1.103-.897 2-2 2H4c-1.103 0-2-.897-2-2V10c0-1.103.897-2 2-2h32m0-1H4a3 3 0 0 0-3 3v20a3 3 0 0 0 3 3h32a3 3 0 0 0 3-3V10a3 3 0 0 0-3-3z"/>
    <path fill="#fff" d="M12.1 15.001L9.699 22.12s-.597-2.911-.657-3.29c-1.367-3.101-3.397-3.028-3.397-3.028L8.022 25v-.002h2.89l3.996-9.997H12.1zM14.389 25h2.625l1.587-9.999h-2.658zM32.967 15.001h-2.762L25.898 25h2.608l.538-1.428h3.288L32.611 25H35l-2.033-9.999zm-3.196 6.661l1.429-3.779.748 3.779h-2.177zM22.325 17.915c0-.551.455-.961 1.761-.961.848 0 1.82.613 1.82.613l.426-2.099S25.09 15 23.872 15c-2.76 0-4.184 1.313-4.184 2.974 0 3.005 3.638 2.593 3.638 4.137 0 .265-.211.876-1.726.876-1.52 0-2.523-.554-2.523-.554l-.453 2.014s.972.551 2.85.551c1.883 0 4.494-1.4 4.494-3.411 0-2.417-3.643-2.592-3.643-3.672z"/>
    <path fill="#dff0fe" d="M9.362 20.442l-.864-4.353s-.4-.935-1.438-.935H3s5.157 1.556 6.362 5.288z"/>
</svg>
